<?xml version="1.0" encoding="utf-8"?>
<!-- Generator: Adobe Illustrator 14.0.0, SVG Export Plug-In . SVG Version: 6.00 Build 43363)  -->
<!DOCTYPE svg PUBLIC "-//W3C//DTD SVG 1.1//EN" "http://www.w3.org/Graphics/SVG/1.1/DTD/svg11.dtd">
<svg version="1.1" id="Ebene_1" xmlns="http://www.w3.org/2000/svg" xmlns:xlink="http://www.w3.org/1999/xlink" x="0px" y="0px"
	 width="20px" height="20px" viewBox="0 0 20 20" enable-background="new 0 0 20 20" xml:space="preserve">
<linearGradient id="SVGID_1_" gradientUnits="userSpaceOnUse" x1="9039.6953" y1="-12871.8047" x2="9533.8359" y2="-13365.9453" gradientTransform="matrix(0.032 0 0 -0.032 -287.1762 -409.8037)">
	<stop  offset="0" style="stop-color:#74B739"/>
	<stop  offset="1" style="stop-color:#56991C"/>
</linearGradient>
<path fill="url(#SVGID_1_)" d="M19,15.266C19,17.328,17.328,19,15.266,19H4.734C2.672,19,1,17.328,1,15.266V4.734
	C1,2.672,2.672,1,4.734,1h10.531C17.328,1,19,2.672,19,4.734V15.266z"/>
<path fill="#FFFFFF" d="M4.266,5.142v9.717h7.705v-3.586h3.764V5.142H4.266z M8.098,13.79H5.58v-2.518h2.518V13.79z M8.098,10.671
	H5.58V8.152h2.518V10.671z M11.259,13.79H8.741v-2.518h2.518V13.79z M11.259,10.671H8.741V8.152h2.518V10.671z M14.421,10.671
	h-2.519V8.152h2.519V10.671z M13.216,14.858v-2.52h2.519L13.216,14.858z"/>
</svg>
